<mxfile host="Electron" modified="2024-05-31T15:31:45.145Z" agent="Mozilla/5.0 (Windows NT 10.0; Win64; x64) AppleWebKit/537.36 (KHTML, like Gecko) draw.io/24.2.5 Chrome/120.0.6099.109 Electron/28.1.0 Safari/537.36" etag="REP4L-vqlKgxM-io5hIa" version="24.2.5" type="device">
  <diagram name="第 1 页" id="xOyv9q7bWcCxbziyFV_k">
    <mxGraphModel dx="2074" dy="1205" grid="1" gridSize="10" guides="1" tooltips="1" connect="1" arrows="1" fold="1" page="1" pageScale="1" pageWidth="827" pageHeight="1169" math="0" shadow="0">
      <root>
        <mxCell id="0" />
        <mxCell id="1" parent="0" />
        <mxCell id="wfkNxhcWGzFdbhlCqruy-13" value="" style="rounded=0;whiteSpace=wrap;html=1;fillColor=#dae8fc;strokeColor=#6c8ebf;" vertex="1" parent="1">
          <mxGeometry x="540" y="330" width="270" height="460" as="geometry" />
        </mxCell>
        <mxCell id="wfkNxhcWGzFdbhlCqruy-12" value="" style="rounded=0;whiteSpace=wrap;html=1;fillColor=#dae8fc;strokeColor=#6c8ebf;" vertex="1" parent="1">
          <mxGeometry x="100" y="330" width="410" height="460" as="geometry" />
        </mxCell>
        <mxCell id="wfkNxhcWGzFdbhlCqruy-1" value="Surface Cache Material Attributes(Albedo/Normal)" style="rounded=0;whiteSpace=wrap;html=1;fontSize=15;fontStyle=1;fillColor=#e1d5e7;strokeColor=#9673a6;" vertex="1" parent="1">
          <mxGeometry x="120" y="360" width="200" height="80" as="geometry" />
        </mxCell>
        <mxCell id="wfkNxhcWGzFdbhlCqruy-2" value="Surface Cache Direct Lighting" style="rounded=0;whiteSpace=wrap;html=1;fontSize=15;fontStyle=1;fillColor=#e1d5e7;strokeColor=#9673a6;" vertex="1" parent="1">
          <mxGeometry x="120" y="520" width="200" height="80" as="geometry" />
        </mxCell>
        <mxCell id="wfkNxhcWGzFdbhlCqruy-3" value="Surface Cache Final Lighting" style="rounded=0;whiteSpace=wrap;html=1;fontSize=15;fontStyle=1;fillColor=#fff2cc;strokeColor=#d6b656;" vertex="1" parent="1">
          <mxGeometry x="120" y="680" width="200" height="80" as="geometry" />
        </mxCell>
        <mxCell id="wfkNxhcWGzFdbhlCqruy-4" value="Surface Cache Indirect Lighting" style="rounded=0;whiteSpace=wrap;html=1;fontSize=15;fontStyle=1;fillColor=#ffe6cc;strokeColor=#d79b00;" vertex="1" parent="1">
          <mxGeometry x="590" y="460" width="200" height="80" as="geometry" />
        </mxCell>
        <mxCell id="wfkNxhcWGzFdbhlCqruy-6" value="" style="endArrow=classic;html=1;rounded=0;exitX=0.5;exitY=1;exitDx=0;exitDy=0;entryX=0.5;entryY=0;entryDx=0;entryDy=0;" edge="1" parent="1" source="wfkNxhcWGzFdbhlCqruy-1" target="wfkNxhcWGzFdbhlCqruy-2">
          <mxGeometry width="50" height="50" relative="1" as="geometry">
            <mxPoint x="390" y="640" as="sourcePoint" />
            <mxPoint x="440" y="590" as="targetPoint" />
          </mxGeometry>
        </mxCell>
        <mxCell id="wfkNxhcWGzFdbhlCqruy-7" value="" style="endArrow=classic;html=1;rounded=0;exitX=0.5;exitY=1;exitDx=0;exitDy=0;entryX=0.5;entryY=0;entryDx=0;entryDy=0;" edge="1" parent="1" source="wfkNxhcWGzFdbhlCqruy-2" target="wfkNxhcWGzFdbhlCqruy-3">
          <mxGeometry width="50" height="50" relative="1" as="geometry">
            <mxPoint x="160" y="650" as="sourcePoint" />
            <mxPoint x="380" y="655" as="targetPoint" />
          </mxGeometry>
        </mxCell>
        <mxCell id="wfkNxhcWGzFdbhlCqruy-8" value="" style="endArrow=classic;html=1;rounded=0;entryX=0.5;entryY=0;entryDx=0;entryDy=0;exitX=0;exitY=1;exitDx=0;exitDy=0;" edge="1" parent="1" source="wfkNxhcWGzFdbhlCqruy-4" target="wfkNxhcWGzFdbhlCqruy-3">
          <mxGeometry width="50" height="50" relative="1" as="geometry">
            <mxPoint x="390" y="640" as="sourcePoint" />
            <mxPoint x="440" y="590" as="targetPoint" />
          </mxGeometry>
        </mxCell>
        <mxCell id="wfkNxhcWGzFdbhlCqruy-9" value="" style="endArrow=classic;html=1;rounded=0;exitX=1;exitY=0.5;exitDx=0;exitDy=0;entryX=0;entryY=0.5;entryDx=0;entryDy=0;" edge="1" parent="1" source="wfkNxhcWGzFdbhlCqruy-3" target="wfkNxhcWGzFdbhlCqruy-11">
          <mxGeometry width="50" height="50" relative="1" as="geometry">
            <mxPoint x="390" y="640" as="sourcePoint" />
            <mxPoint x="460" y="720" as="targetPoint" />
          </mxGeometry>
        </mxCell>
        <mxCell id="wfkNxhcWGzFdbhlCqruy-10" value="Light Injection" style="text;html=1;align=center;verticalAlign=middle;whiteSpace=wrap;rounded=0;fontSize=15;fontStyle=1" vertex="1" parent="1">
          <mxGeometry x="384" y="690" width="106" height="30" as="geometry" />
        </mxCell>
        <mxCell id="wfkNxhcWGzFdbhlCqruy-11" value="World Sapce Voxel Lighting" style="rounded=0;whiteSpace=wrap;html=1;fontSize=15;fontStyle=1;fillColor=#d5e8d4;strokeColor=#82b366;" vertex="1" parent="1">
          <mxGeometry x="590" y="680" width="200" height="80" as="geometry" />
        </mxCell>
        <mxCell id="wfkNxhcWGzFdbhlCqruy-14" value="" style="endArrow=classic;html=1;rounded=0;exitX=0.5;exitY=0;exitDx=0;exitDy=0;" edge="1" parent="1" source="wfkNxhcWGzFdbhlCqruy-11" target="wfkNxhcWGzFdbhlCqruy-4">
          <mxGeometry width="50" height="50" relative="1" as="geometry">
            <mxPoint x="210" y="640" as="sourcePoint" />
            <mxPoint x="260" y="590" as="targetPoint" />
          </mxGeometry>
        </mxCell>
        <mxCell id="wfkNxhcWGzFdbhlCqruy-16" value="Frame N" style="text;html=1;align=center;verticalAlign=middle;whiteSpace=wrap;rounded=0;fontStyle=1;fontSize=20;" vertex="1" parent="1">
          <mxGeometry x="370" y="360" width="120" height="50" as="geometry" />
        </mxCell>
        <mxCell id="wfkNxhcWGzFdbhlCqruy-17" value="Frame N - 1" style="text;html=1;align=center;verticalAlign=middle;whiteSpace=wrap;rounded=0;fontStyle=1;fontSize=20;" vertex="1" parent="1">
          <mxGeometry x="622.5" y="350" width="135" height="30" as="geometry" />
        </mxCell>
        <mxCell id="wfkNxhcWGzFdbhlCqruy-18" value="1" style="rounded=0;whiteSpace=wrap;html=1;fontSize=20;fontStyle=1;fillColor=#ffcc99;strokeColor=#36393d;" vertex="1" parent="1">
          <mxGeometry x="270" y="480" width="50" height="40" as="geometry" />
        </mxCell>
        <mxCell id="wfkNxhcWGzFdbhlCqruy-19" value="4" style="rounded=0;whiteSpace=wrap;html=1;fontSize=20;fontStyle=1;fillColor=#ffcc99;strokeColor=#36393d;" vertex="1" parent="1">
          <mxGeometry x="740" y="420" width="50" height="40" as="geometry" />
        </mxCell>
        <mxCell id="wfkNxhcWGzFdbhlCqruy-20" value="2" style="rounded=0;whiteSpace=wrap;html=1;fontSize=20;fontStyle=1;fillColor=#ffcc99;strokeColor=#36393d;" vertex="1" parent="1">
          <mxGeometry x="270" y="640" width="50" height="40" as="geometry" />
        </mxCell>
        <mxCell id="wfkNxhcWGzFdbhlCqruy-22" value="Combine Light" style="text;html=1;align=center;verticalAlign=middle;whiteSpace=wrap;rounded=0;fontSize=15;fontStyle=1" vertex="1" parent="1">
          <mxGeometry x="220" y="620" width="130" height="30" as="geometry" />
        </mxCell>
        <mxCell id="wfkNxhcWGzFdbhlCqruy-23" value="3" style="rounded=0;whiteSpace=wrap;html=1;fontSize=20;fontStyle=1;fillColor=#ffcc99;strokeColor=#36393d;" vertex="1" parent="1">
          <mxGeometry x="740" y="640" width="50" height="40" as="geometry" />
        </mxCell>
      </root>
    </mxGraphModel>
  </diagram>
</mxfile>
